# This file uses centimeters as units for non-parametric coordinates.

mtllib SolCentre.mtl
g default
v 287.086792 72.035027 -0.100184
v 181.986282 72.107140 -0.100184
v 287.086792 72.106583 -200.100189
v 287.086761 87.896370 -0.100184
v 181.986282 72.165482 -200.100189
v 181.986282 87.896370 -0.100184
v 287.086761 87.967918 -200.100189
v 181.986282 87.967918 -200.100189
vt 0.538911 0.007812
vt 0.616978 0.007812
vt 0.616626 0.992187
vt 0.538559 0.992187
vt 0.706228 0.007812
vt 0.706580 0.992187
vt 0.628803 0.992187
vt 0.628516 0.007812
vt 0.525104 0.007812
vt 0.525104 0.992188
vt 0.007813 0.992188
vt 0.007813 0.007812
vn 1.000000 0.000002 0.000000
vn 1.000000 0.000002 0.000000
vn 1.000000 0.000002 0.000000
vn 1.000000 0.000002 0.000000
vn 0.000000 1.000000 0.000358
vn 0.000000 1.000000 0.000358
vn 0.000000 1.000000 0.000358
vn 0.000000 1.000000 0.000358
vn -1.000000 0.000000 0.000000
vn -1.000000 0.000000 0.000000
vn -1.000000 0.000000 0.000000
vn -1.000000 0.000000 0.000000
s off
g pPlane4 bloc_centre
usemtl Papier_sol
f 3/1/1 7/2/2 4/3/3 1/4/4
f 4/9/5 7/10/6 8/11/7 6/12/8
f 6/5/9 8/6/10 5/7/11 2/8/12
g default
v 183.217422 11.514486 -0.100183
v 283.217438 11.514486 -0.100183
v 183.217422 85.885056 -0.100183
v 283.217438 85.885056 -0.100183
v 183.217422 85.885056 -200.100189
v 283.217438 85.885056 -200.100189
v 183.217422 11.514486 -200.100189
v 283.217438 11.514486 -200.100189
vt 0.575858 0.551629
vt 0.575858 0.007812
vt 0.778078 0.007812
vt 0.778078 0.551629
vt 0.789968 0.551629
vt 0.789968 0.007812
vt 0.992188 0.007812
vt 0.992188 0.551629
vt 0.007812 0.007812
vt 0.279721 0.007812
vt 0.279721 0.551629
vt 0.007812 0.551629
vt 0.291835 0.007812
vt 0.563744 0.007812
vt 0.563744 0.551629
vt 0.291835 0.551629
vt 0.575858 0.832276
vt 0.575858 0.560368
vt 0.778078 0.560368
vt 0.778078 0.832276
vt 0.789968 0.832276
vt 0.789968 0.560368
vt 0.992188 0.560368
vt 0.992188 0.832276
vn 0.000000 0.000000 1.000000
vn 0.000000 0.000000 1.000000
vn 0.000000 0.000000 1.000000
vn 0.000000 0.000000 1.000000
vn 0.000000 1.000000 0.000000
vn 0.000000 1.000000 0.000000
vn 0.000000 1.000000 0.000000
vn 0.000000 1.000000 0.000000
vn 0.000000 0.000000 -1.000000
vn 0.000000 0.000000 -1.000000
vn 0.000000 0.000000 -1.000000
vn 0.000000 0.000000 -1.000000
vn 0.000000 -1.000000 0.000000
vn 0.000000 -1.000000 0.000000
vn 0.000000 -1.000000 0.000000
vn 0.000000 -1.000000 0.000000
vn 1.000000 0.000000 0.000000
vn 1.000000 0.000000 0.000000
vn 1.000000 0.000000 0.000000
vn 1.000000 0.000000 0.000000
vn -1.000000 0.000000 0.000000
vn -1.000000 0.000000 0.000000
vn -1.000000 0.000000 0.000000
vn -1.000000 0.000000 0.000000
s off
g bloc_centre pCube8
usemtl Carton1
f 9/29/13 10/30/14 12/31/15 11/32/16
f 11/21/17 12/22/18 14/23/19 13/24/20
f 13/33/21 14/34/22 16/35/23 15/36/24
f 15/25/25 16/26/26 10/27/27 9/28/28
f 10/13/29 16/14/30 14/15/31 12/16/32
f 15/17/33 9/18/34 11/19/35 13/20/36
